<svg xmlns="http://www.w3.org/2000/svg" width="20.5" height="20.5" viewBox="0 0 20.5 20.5">
  <path id="Path_1335" data-name="Path 1335" d="M16.714,5H18.9a2.2,2.2,0,0,1,2.205,2.205V18.9A2.2,2.2,0,0,1,18.9,21.107H7.207A2.2,2.2,0,0,1,5,18.9V16.714h9.509a2.2,2.2,0,0,0,2.205-2.205Z" transform="translate(-0.607 -0.607)" fill="rgba(0,0,0,0.36)"/>
  <path id="Path_1336" data-name="Path 1336" d="M4.2,2A2.192,2.192,0,0,0,2,4.2V15.911a2.192,2.192,0,0,0,2.2,2.2H15.91a2.192,2.192,0,0,0,2.2-2.2V4.2A2.192,2.192,0,0,0,15.91,2Zm0,2.2H15.91V15.911H4.2Z" transform="translate(-2 -2)" fill="#212121"/>
</svg>
