<svg height="295" viewBox="0 0 295 295"
  xmlns="http://www.w3.org/2000/svg">
  <g id="g10">
    <path fill="#373f4e" d="m147.49749,225.26522a77.765,77.765 0 0 1 -77.765,-77.765a77.764,77.764 0 0 1 77.765,-77.765a77.764,77.764 0 0 1 77.765,77.766a77.765,77.765 0 0 1 -77.765,77.764zm146.694,-82.055a13.6,13.6 0 0 0 -8.478,-12.211c-43.367,-17.373 -61.453,-48.692 -54.82,-94.933a13.605,13.605 0 0 0 -6.349,-13.453q-3.619,-2.238 -7.374,-4.269a13.613,13.613 0 0 0 -14.861,1.211c-36.73,28.869 -72.9,28.869 -109.626,0a13.613,13.613 0 0 0 -14.861,-1.211q-3.753,2.031 -7.374,4.269a13.6,13.6 0 0 0 -6.349,13.453c6.633,46.24 -11.452,77.56 -54.82,94.933a13.6,13.6 0 0 0 -8.478,12.211q-0.068,2.136 -0.068,4.291t0.068,4.29a13.6,13.6 0 0 0 8.478,12.21c43.367,17.373 61.453,48.693 54.82,94.933a13.6,13.6 0 0 0 6.349,13.453q3.619,2.238 7.374,4.269a13.613,13.613 0 0 0 14.861,-1.212c36.73,-28.869 72.9,-28.869 109.626,0a13.613,13.613 0 0 0 14.861,1.212q3.753,-2.031 7.374,-4.269a13.6,13.6 0 0 0 6.349,-13.453c-6.633,-46.24 11.452,-77.56 54.82,-94.933a13.6,13.6 0 0 0 8.484,-12.208q0.068,-2.138 0.069,-4.29t-0.069,-4.291" id="path16"/>
    <path fill="#456cbd" d="m130.88748,172.21422l-43.874,-19.081l0,-10.566l43.879,-18.993l0,12.443l-30.605,11.7l30.605,12.139l0,12.355" id="path18"/>
    <path fill="#456cbd" d="m134.94962,180.59429l15.849,-66.188l9.211,0l-16.021,66.188l-9.039,0" id="path20"/>
    <path fill="#456cbd" d="m164.07056,172.25527l0,-12.355l30.648,-12.047l-30.648,-11.923l0,-12.268l43.922,18.993l0,10.478l-43.922,19.122" id="path22"/>
  </g>
</svg>