<svg xmlns="http://www.w3.org/2000/svg" width="102.993" height="23" viewBox="0 0 102.993 23">
  <g id="Group_79" data-name="Group 79" transform="translate(-162.007 -128)">
    <g id="g10" transform="translate(87.403 5375.184)">
      <path id="path16" d="M922-4208.258a4.716,4.716,0,0,1-4.639-4.789,4.716,4.716,0,0,1,4.639-4.789,4.716,4.716,0,0,1,4.639,4.789A4.716,4.716,0,0,1,922-4208.258Zm8.752-5.053a.837.837,0,0,0-.506-.752c-2.587-1.07-3.666-3-3.271-5.845a.848.848,0,0,0-.379-.829q-.216-.138-.44-.263a.792.792,0,0,0-.887.075,4.677,4.677,0,0,1-6.54,0,.792.792,0,0,0-.887-.075q-.224.126-.44.263a.847.847,0,0,0-.379.829c.4,2.847-.683,4.775-3.271,5.845a.837.837,0,0,0-.506.752c0,.088,0,.176,0,.264s0,.177,0,.264a.837.837,0,0,0,.506.752c2.587,1.07,3.666,3,3.271,5.846a.846.846,0,0,0,.379.828q.216.138.44.263a.791.791,0,0,0,.887-.075,4.677,4.677,0,0,1,6.54,0,.791.791,0,0,0,.887.075q.224-.125.44-.263a.847.847,0,0,0,.379-.828c-.4-2.847.683-4.776,3.271-5.846a.837.837,0,0,0,.506-.752c0-.087,0-.176,0-.264s0-.176,0-.264" transform="translate(-838.637 -1022.328)" fill="#373f4e"/>
      <path id="path18" d="M1979.72-2900.186l-2.724-1.185v-.656l2.724-1.179v.772l-1.9.727,1.9.754v.767" transform="translate(-1897.392 -2333.655)" fill="#456cbd"/>
      <path id="path20" d="M2568.114-3012.137l.984-4.109h.572l-.995,4.109h-.561" transform="translate(-2485.534 -2221.184)" fill="#456cbd"/>
      <path id="path22" d="M2927.18-2899.109v-.767l1.9-.748-1.9-.74v-.762l2.727,1.179v.65l-2.727,1.187" transform="translate(-2842.792 -2334.729)" fill="#456cbd"/>
    </g>
    <text id="ReSpecT" transform="translate(186 146)" fill="#373f4e" font-size="20" font-family="Consolas-Bold, Consolas" font-weight="700" letter-spacing="0.01em"><tspan x="0" y="0">Re</tspan><tspan y="0" fill="#456cbd">SpecT</tspan></text>
  </g>
</svg>
