<svg id="edit-mask" xmlns="http://www.w3.org/2000/svg" width="20" height="20" viewBox="0 0 20 20">
  <path id="Path_464" data-name="Path 464" d="M12,14a2,2,0,1,0-2-2A2,2,0,0,0,12,14Z" transform="translate(-2 -2)" fill="#565656"/>
  <path id="Path_465" data-name="Path 465" d="M12,22A10,10,0,1,1,22,12,10,10,0,0,1,12,22ZM9.031,19.431a3,3,0,1,1,5.939,0,8.026,8.026,0,0,0,4.461-4.462A3,3,0,1,1,19,9q.1,0,.19.006.122.008.241.025a8.026,8.026,0,0,0-4.461-4.462A3.031,3.031,0,0,1,15,5a3,3,0,1,1-5.969-.431A8.026,8.026,0,0,0,4.569,9.031q.119-.017.241-.025Q4.9,9,5,9a3,3,0,1,1-.431,5.969A8.026,8.026,0,0,0,9.031,19.431Z" transform="translate(-2 -2)" fill="#565656" fill-rule="evenodd"/>
</svg>
